{
	"asset":{
		"generator":"Khronos glTF Blender I/O v4.3.47",
		"version":"2.0"
	},
	"scene":0,
	"scenes":[
		{
			"name":"Scene",
			"nodes":[
				2
			]
		}
	],
	"nodes":[
		{
			"name":"Bone",
			"rotation":[
				-8.958649289070308e-08,
				-9.040687132255698e-08,
				-0.7046924829483032,
				0.7095128297805786
			],
			"scale":[
				1.0000001192092896,
				1.0000001192092896,
				1
			],
			"translation":[
				-0.4487188160419464,
				0.09641892462968826,
				0
			]
		},
		{
			"mesh":0,
			"name":"food_ingredient_steak",
			"skin":0
		},
		{
			"children":[
				1,
				0
			],
			"name":"Armature"
		}
	],
	"animations":[
		{
			"channels":[
				{
					"sampler":0,
					"target":{
						"node":0,
						"path":"translation"
					}
				},
				{
					"sampler":1,
					"target":{
						"node":0,
						"path":"rotation"
					}
				},
				{
					"sampler":2,
					"target":{
						"node":0,
						"path":"scale"
					}
				}
			],
			"name":"flip",
			"samplers":[
				{
					"input":7,
					"interpolation":"LINEAR",
					"output":8
				},
				{
					"input":7,
					"interpolation":"LINEAR",
					"output":9
				},
				{
					"input":10,
					"interpolation":"STEP",
					"output":11
				}
			]
		},
		{
			"channels":[
				{
					"sampler":0,
					"target":{
						"node":0,
						"path":"translation"
					}
				},
				{
					"sampler":1,
					"target":{
						"node":0,
						"path":"rotation"
					}
				},
				{
					"sampler":2,
					"target":{
						"node":0,
						"path":"scale"
					}
				}
			],
			"name":"idle",
			"samplers":[
				{
					"input":12,
					"interpolation":"LINEAR",
					"output":13
				},
				{
					"input":12,
					"interpolation":"LINEAR",
					"output":14
				},
				{
					"input":12,
					"interpolation":"LINEAR",
					"output":15
				}
			]
		}
	],
	"materials":[
		{
			"name":"restaurant",
			"pbrMetallicRoughness":{
				"baseColorTexture":{
					"index":0
				},
				"metallicFactor":0,
				"roughnessFactor":0.5
			}
		}
	],
	"meshes":[
		{
			"name":"Cylinder.062",
			"primitives":[
				{
					"attributes":{
						"POSITION":0,
						"NORMAL":1,
						"TEXCOORD_0":2,
						"JOINTS_0":3,
						"WEIGHTS_0":4
					},
					"indices":5,
					"material":0
				}
			]
		}
	],
	"textures":[
		{
			"sampler":0,
			"source":0
		}
	],
	"images":[
		{
			"mimeType":"image/png",
			"name":"restaurantbits_texture",
			"uri":"restaurantbits_texture.png"
		}
	],
	"skins":[
		{
			"inverseBindMatrices":6,
			"joints":[
				0
			],
			"name":"Armature"
		}
	],
	"accessors":[
		{
			"bufferView":0,
			"componentType":5126,
			"count":354,
			"max":[
				0.5285485982894897,
				0.24602483212947845,
				0.4520106911659241
			],
			"min":[
				-0.5235282182693481,
				-0.03722076117992401,
				-0.4505162239074707
			],
			"type":"VEC3"
		},
		{
			"bufferView":1,
			"componentType":5126,
			"count":354,
			"type":"VEC3"
		},
		{
			"bufferView":2,
			"componentType":5126,
			"count":354,
			"type":"VEC2"
		},
		{
			"bufferView":3,
			"componentType":5121,
			"count":354,
			"type":"VEC4"
		},
		{
			"bufferView":4,
			"componentType":5126,
			"count":354,
			"type":"VEC4"
		},
		{
			"bufferView":5,
			"componentType":5123,
			"count":1056,
			"type":"SCALAR"
		},
		{
			"bufferView":6,
			"componentType":5126,
			"count":1,
			"type":"MAT4"
		},
		{
			"bufferView":7,
			"componentType":5126,
			"count":30,
			"max":[
				1.25
			],
			"min":[
				0.041666666666666664
			],
			"type":"SCALAR"
		},
		{
			"bufferView":8,
			"componentType":5126,
			"count":30,
			"type":"VEC3"
		},
		{
			"bufferView":9,
			"componentType":5126,
			"count":30,
			"type":"VEC4"
		},
		{
			"bufferView":10,
			"componentType":5126,
			"count":2,
			"max":[
				1.25
			],
			"min":[
				0.041666666666666664
			],
			"type":"SCALAR"
		},
		{
			"bufferView":11,
			"componentType":5126,
			"count":2,
			"type":"VEC3"
		},
		{
			"bufferView":12,
			"componentType":5126,
			"count":1,
			"max":[
				0
			],
			"min":[
				0
			],
			"type":"SCALAR"
		},
		{
			"bufferView":13,
			"componentType":5126,
			"count":1,
			"type":"VEC3"
		},
		{
			"bufferView":14,
			"componentType":5126,
			"count":1,
			"type":"VEC4"
		},
		{
			"bufferView":15,
			"componentType":5126,
			"count":1,
			"type":"VEC3"
		}
	],
	"bufferViews":[
		{
			"buffer":0,
			"byteLength":4248,
			"byteOffset":0,
			"target":34962
		},
		{
			"buffer":0,
			"byteLength":4248,
			"byteOffset":4248,
			"target":34962
		},
		{
			"buffer":0,
			"byteLength":2832,
			"byteOffset":8496,
			"target":34962
		},
		{
			"buffer":0,
			"byteLength":1416,
			"byteOffset":11328,
			"target":34962
		},
		{
			"buffer":0,
			"byteLength":5664,
			"byteOffset":12744,
			"target":34962
		},
		{
			"buffer":0,
			"byteLength":2112,
			"byteOffset":18408,
			"target":34963
		},
		{
			"buffer":0,
			"byteLength":64,
			"byteOffset":20520
		},
		{
			"buffer":0,
			"byteLength":120,
			"byteOffset":20584
		},
		{
			"buffer":0,
			"byteLength":360,
			"byteOffset":20704
		},
		{
			"buffer":0,
			"byteLength":480,
			"byteOffset":21064
		},
		{
			"buffer":0,
			"byteLength":8,
			"byteOffset":21544
		},
		{
			"buffer":0,
			"byteLength":24,
			"byteOffset":21552
		},
		{
			"buffer":0,
			"byteLength":4,
			"byteOffset":21576
		},
		{
			"buffer":0,
			"byteLength":12,
			"byteOffset":21580
		},
		{
			"buffer":0,
			"byteLength":16,
			"byteOffset":21592
		},
		{
			"buffer":0,
			"byteLength":12,
			"byteOffset":21608
		}
	],
	"samplers":[
		{
			"magFilter":9729,
			"minFilter":9987
		}
	],
	"buffers":[
		{
			"byteLength":21620,
			"uri":"food_ingredient_steak.bin"
		}
	]
}
