{
	"asset":{
		"generator":"Khronos glTF Blender I/O v4.3.47",
		"version":"2.0"
	},
	"scene":0,
	"scenes":[
		{
			"name":"Scene",
			"nodes":[
				10
			]
		}
	],
	"nodes":[
		{
			"name":"Bone",
			"translation":[
				0,
				0.7312710285186768,
				0
			]
		},
		{
			"name":"Bone.001",
			"rotation":[
				-0.7008221745491028,
				0,
				0,
				0.7133360505104065
			],
			"translation":[
				0,
				0.05691659078001976,
				1.7664964199066162
			]
		},
		{
			"mesh":0,
			"name":"food_ingredient_burger_cooked",
			"skin":0
		},
		{
			"mesh":1,
			"name":"food_ingredient_burger_trash",
			"skin":0
		},
		{
			"mesh":2,
			"name":"food_ingredient_burger_uncooked",
			"skin":0
		},
		{
			"mesh":3,
			"name":"food_ingredient_ham",
			"skin":0
		},
		{
			"mesh":4,
			"name":"food_ingredient_ham_cooked",
			"skin":0
		},
		{
			"mesh":5,
			"name":"food_ingredient_ham_trash",
			"skin":0
		},
		{
			"mesh":6,
			"name":"food_ingredient_steak",
			"skin":0
		},
		{
			"mesh":7,
			"name":"pan_B",
			"skin":0
		},
		{
			"children":[
				2,
				3,
				4,
				5,
				6,
				7,
				8,
				9,
				0,
				1
			],
			"name":"Esqueleto",
			"scale":[
				0.750947117805481,
				0.750947117805481,
				0.750947117805481
			],
			"translation":[
				0,
				-0.051003992557525635,
				0
			]
		}
	],
	"animations":[
		{
			"channels":[
				{
					"sampler":0,
					"target":{
						"node":0,
						"path":"translation"
					}
				},
				{
					"sampler":1,
					"target":{
						"node":0,
						"path":"rotation"
					}
				},
				{
					"sampler":2,
					"target":{
						"node":0,
						"path":"scale"
					}
				},
				{
					"sampler":3,
					"target":{
						"node":1,
						"path":"translation"
					}
				},
				{
					"sampler":4,
					"target":{
						"node":1,
						"path":"rotation"
					}
				},
				{
					"sampler":5,
					"target":{
						"node":1,
						"path":"scale"
					}
				}
			],
			"name":"flip",
			"samplers":[
				{
					"input":47,
					"interpolation":"LINEAR",
					"output":48
				},
				{
					"input":47,
					"interpolation":"LINEAR",
					"output":49
				},
				{
					"input":50,
					"interpolation":"STEP",
					"output":51
				},
				{
					"input":50,
					"interpolation":"STEP",
					"output":52
				},
				{
					"input":47,
					"interpolation":"LINEAR",
					"output":53
				},
				{
					"input":50,
					"interpolation":"STEP",
					"output":54
				}
			]
		},
		{
			"channels":[
				{
					"sampler":0,
					"target":{
						"node":0,
						"path":"translation"
					}
				},
				{
					"sampler":1,
					"target":{
						"node":0,
						"path":"rotation"
					}
				},
				{
					"sampler":2,
					"target":{
						"node":0,
						"path":"scale"
					}
				},
				{
					"sampler":3,
					"target":{
						"node":1,
						"path":"translation"
					}
				},
				{
					"sampler":4,
					"target":{
						"node":1,
						"path":"rotation"
					}
				},
				{
					"sampler":5,
					"target":{
						"node":1,
						"path":"scale"
					}
				}
			],
			"name":"idle",
			"samplers":[
				{
					"input":55,
					"interpolation":"STEP",
					"output":56
				},
				{
					"input":55,
					"interpolation":"STEP",
					"output":57
				},
				{
					"input":55,
					"interpolation":"STEP",
					"output":58
				},
				{
					"input":55,
					"interpolation":"STEP",
					"output":59
				},
				{
					"input":55,
					"interpolation":"STEP",
					"output":60
				},
				{
					"input":55,
					"interpolation":"STEP",
					"output":61
				}
			]
		}
	],
	"materials":[
		{
			"name":"restaurant.004",
			"pbrMetallicRoughness":{
				"baseColorTexture":{
					"index":0
				},
				"metallicFactor":0,
				"roughnessFactor":0.5
			}
		},
		{
			"name":"restaurant.005",
			"pbrMetallicRoughness":{
				"baseColorTexture":{
					"index":1
				},
				"metallicFactor":0,
				"roughnessFactor":0.5
			}
		},
		{
			"name":"restaurant.006",
			"pbrMetallicRoughness":{
				"baseColorTexture":{
					"index":2
				},
				"metallicFactor":0,
				"roughnessFactor":0.5
			}
		},
		{
			"name":"restaurant.013",
			"pbrMetallicRoughness":{
				"baseColorTexture":{
					"index":3
				},
				"metallicFactor":0,
				"roughnessFactor":0.5
			}
		},
		{
			"name":"restaurant.014",
			"pbrMetallicRoughness":{
				"baseColorTexture":{
					"index":4
				},
				"metallicFactor":0,
				"roughnessFactor":0.5
			}
		},
		{
			"name":"restaurant.015",
			"pbrMetallicRoughness":{
				"baseColorTexture":{
					"index":5
				},
				"metallicFactor":0,
				"roughnessFactor":0.5
			}
		},
		{
			"name":"restaurant.024",
			"pbrMetallicRoughness":{
				"baseColorTexture":{
					"index":6
				},
				"metallicFactor":0,
				"roughnessFactor":0.5
			}
		},
		{
			"name":"restaurant.035",
			"pbrMetallicRoughness":{
				"baseColorTexture":{
					"index":7
				},
				"metallicFactor":0,
				"roughnessFactor":0.5
			}
		}
	],
	"meshes":[
		{
			"name":"Cylinder.051",
			"primitives":[
				{
					"attributes":{
						"POSITION":0,
						"NORMAL":1,
						"TEXCOORD_0":2,
						"JOINTS_0":3,
						"WEIGHTS_0":4
					},
					"indices":5,
					"material":0
				}
			]
		},
		{
			"name":"Cylinder.056",
			"primitives":[
				{
					"attributes":{
						"POSITION":7,
						"NORMAL":8,
						"TEXCOORD_0":9,
						"JOINTS_0":10,
						"WEIGHTS_0":11
					},
					"indices":5,
					"material":1
				}
			]
		},
		{
			"name":"Cylinder.063",
			"primitives":[
				{
					"attributes":{
						"POSITION":12,
						"NORMAL":13,
						"TEXCOORD_0":14,
						"JOINTS_0":15,
						"WEIGHTS_0":16
					},
					"indices":17,
					"material":2
				}
			]
		},
		{
			"name":"Cylinder.853",
			"primitives":[
				{
					"attributes":{
						"POSITION":18,
						"NORMAL":19,
						"TEXCOORD_0":20,
						"JOINTS_0":21,
						"WEIGHTS_0":22
					},
					"indices":23,
					"material":3
				}
			]
		},
		{
			"name":"Cylinder.090",
			"primitives":[
				{
					"attributes":{
						"POSITION":24,
						"NORMAL":25,
						"TEXCOORD_0":26,
						"JOINTS_0":27,
						"WEIGHTS_0":28
					},
					"indices":23,
					"material":4
				}
			]
		},
		{
			"name":"Cylinder.091",
			"primitives":[
				{
					"attributes":{
						"POSITION":29,
						"NORMAL":30,
						"TEXCOORD_0":31,
						"JOINTS_0":32,
						"WEIGHTS_0":33
					},
					"indices":34,
					"material":5
				}
			]
		},
		{
			"name":"Cylinder.062",
			"primitives":[
				{
					"attributes":{
						"POSITION":35,
						"NORMAL":36,
						"TEXCOORD_0":37,
						"JOINTS_0":38,
						"WEIGHTS_0":39
					},
					"indices":40,
					"material":6
				}
			]
		},
		{
			"name":"Cylinder.200",
			"primitives":[
				{
					"attributes":{
						"POSITION":41,
						"NORMAL":42,
						"TEXCOORD_0":43,
						"JOINTS_0":44,
						"WEIGHTS_0":45
					},
					"indices":46,
					"material":7
				}
			]
		}
	],
	"textures":[
		{
			"sampler":0,
			"source":0
		},
		{
			"sampler":0,
			"source":0
		},
		{
			"sampler":0,
			"source":0
		},
		{
			"sampler":0,
			"source":0
		},
		{
			"sampler":0,
			"source":0
		},
		{
			"sampler":0,
			"source":0
		},
		{
			"sampler":0,
			"source":0
		},
		{
			"sampler":0,
			"source":0
		}
	],
	"images":[
		{
			"mimeType":"image/png",
			"name":"restaurantbits_texture",
			"uri":"restaurantbits_texture.png"
		}
	],
	"skins":[
		{
			"inverseBindMatrices":6,
			"joints":[
				0,
				1
			],
			"name":"Esqueleto"
		}
	],
	"accessors":[
		{
			"bufferView":0,
			"componentType":5126,
			"count":188,
			"max":[
				0.2628314793109894,
				0.6631336808204651,
				0.2628314793109894
			],
			"min":[
				-0.2628314793109894,
				0.5129442811012268,
				-0.2628314793109894
			],
			"type":"VEC3"
		},
		{
			"bufferView":1,
			"componentType":5126,
			"count":188,
			"type":"VEC3"
		},
		{
			"bufferView":2,
			"componentType":5126,
			"count":188,
			"type":"VEC2"
		},
		{
			"bufferView":3,
			"componentType":5121,
			"count":188,
			"type":"VEC4"
		},
		{
			"bufferView":4,
			"componentType":5126,
			"count":188,
			"type":"VEC4"
		},
		{
			"bufferView":5,
			"componentType":5123,
			"count":624,
			"type":"SCALAR"
		},
		{
			"bufferView":6,
			"componentType":5126,
			"count":2,
			"type":"MAT4"
		},
		{
			"bufferView":7,
			"componentType":5126,
			"count":188,
			"max":[
				0.2628314793109894,
				0.6631336808204651,
				0.2628314793109894
			],
			"min":[
				-0.2628314793109894,
				0.5129442811012268,
				-0.2628314793109894
			],
			"type":"VEC3"
		},
		{
			"bufferView":8,
			"componentType":5126,
			"count":188,
			"type":"VEC3"
		},
		{
			"bufferView":9,
			"componentType":5126,
			"count":188,
			"type":"VEC2"
		},
		{
			"bufferView":10,
			"componentType":5121,
			"count":188,
			"type":"VEC4"
		},
		{
			"bufferView":11,
			"componentType":5126,
			"count":188,
			"type":"VEC4"
		},
		{
			"bufferView":12,
			"componentType":5126,
			"count":170,
			"max":[
				0.2628314793109894,
				0.6631336808204651,
				0.2628314793109894
			],
			"min":[
				-0.2628314793109894,
				0.5129442811012268,
				-0.2628314793109894
			],
			"type":"VEC3"
		},
		{
			"bufferView":13,
			"componentType":5126,
			"count":170,
			"type":"VEC3"
		},
		{
			"bufferView":14,
			"componentType":5126,
			"count":170,
			"type":"VEC2"
		},
		{
			"bufferView":15,
			"componentType":5121,
			"count":170,
			"type":"VEC4"
		},
		{
			"bufferView":16,
			"componentType":5126,
			"count":170,
			"type":"VEC4"
		},
		{
			"bufferView":17,
			"componentType":5123,
			"count":624,
			"type":"SCALAR"
		},
		{
			"bufferView":18,
			"componentType":5126,
			"count":222,
			"max":[
				0.6723585724830627,
				0.992337703704834,
				0.3119012415409088
			],
			"min":[
				-0.37228477001190186,
				0.36905163526535034,
				-0.3113848865032196
			],
			"type":"VEC3"
		},
		{
			"bufferView":19,
			"componentType":5126,
			"count":222,
			"type":"VEC3"
		},
		{
			"bufferView":20,
			"componentType":5126,
			"count":222,
			"type":"VEC2"
		},
		{
			"bufferView":21,
			"componentType":5121,
			"count":222,
			"type":"VEC4"
		},
		{
			"bufferView":22,
			"componentType":5126,
			"count":222,
			"type":"VEC4"
		},
		{
			"bufferView":23,
			"componentType":5123,
			"count":816,
			"type":"SCALAR"
		},
		{
			"bufferView":24,
			"componentType":5126,
			"count":222,
			"max":[
				0.6723585724830627,
				0.992337703704834,
				0.3119012415409088
			],
			"min":[
				-0.37228477001190186,
				0.36905163526535034,
				-0.3113848865032196
			],
			"type":"VEC3"
		},
		{
			"bufferView":25,
			"componentType":5126,
			"count":222,
			"type":"VEC3"
		},
		{
			"bufferView":26,
			"componentType":5126,
			"count":222,
			"type":"VEC2"
		},
		{
			"bufferView":27,
			"componentType":5121,
			"count":222,
			"type":"VEC4"
		},
		{
			"bufferView":28,
			"componentType":5126,
			"count":222,
			"type":"VEC4"
		},
		{
			"bufferView":29,
			"componentType":5126,
			"count":222,
			"max":[
				0.6723585724830627,
				0.992337703704834,
				0.3119012415409088
			],
			"min":[
				-0.37228477001190186,
				0.36905163526535034,
				-0.3113848865032196
			],
			"type":"VEC3"
		},
		{
			"bufferView":30,
			"componentType":5126,
			"count":222,
			"type":"VEC3"
		},
		{
			"bufferView":31,
			"componentType":5126,
			"count":222,
			"type":"VEC2"
		},
		{
			"bufferView":32,
			"componentType":5121,
			"count":222,
			"type":"VEC4"
		},
		{
			"bufferView":33,
			"componentType":5126,
			"count":222,
			"type":"VEC4"
		},
		{
			"bufferView":34,
			"componentType":5123,
			"count":816,
			"type":"SCALAR"
		},
		{
			"bufferView":35,
			"componentType":5126,
			"count":354,
			"max":[
				0.33428657054901123,
				0.6976959109306335,
				0.3707706034183502
			],
			"min":[
				-0.34346339106559753,
				0.48499345779418945,
				-0.4192834198474884
			],
			"type":"VEC3"
		},
		{
			"bufferView":36,
			"componentType":5126,
			"count":354,
			"type":"VEC3"
		},
		{
			"bufferView":37,
			"componentType":5126,
			"count":354,
			"type":"VEC2"
		},
		{
			"bufferView":38,
			"componentType":5121,
			"count":354,
			"type":"VEC4"
		},
		{
			"bufferView":39,
			"componentType":5126,
			"count":354,
			"type":"VEC4"
		},
		{
			"bufferView":40,
			"componentType":5123,
			"count":1056,
			"type":"SCALAR"
		},
		{
			"bufferView":41,
			"componentType":5126,
			"count":277,
			"max":[
				0.694614589214325,
				0.08433832228183746,
				1.38922917842865
			],
			"min":[
				-0.694614589214325,
				-0.051003992557525635,
				-0.694614589214325
			],
			"type":"VEC3"
		},
		{
			"bufferView":42,
			"componentType":5126,
			"count":277,
			"type":"VEC3"
		},
		{
			"bufferView":43,
			"componentType":5126,
			"count":277,
			"type":"VEC2"
		},
		{
			"bufferView":44,
			"componentType":5121,
			"count":277,
			"type":"VEC4"
		},
		{
			"bufferView":45,
			"componentType":5126,
			"count":277,
			"type":"VEC4"
		},
		{
			"bufferView":46,
			"componentType":5123,
			"count":930,
			"type":"SCALAR"
		},
		{
			"bufferView":47,
			"componentType":5126,
			"count":7,
			"max":[
				0.25
			],
			"min":[
				0
			],
			"type":"SCALAR"
		},
		{
			"bufferView":48,
			"componentType":5126,
			"count":7,
			"type":"VEC3"
		},
		{
			"bufferView":49,
			"componentType":5126,
			"count":7,
			"type":"VEC4"
		},
		{
			"bufferView":50,
			"componentType":5126,
			"count":2,
			"max":[
				0.25
			],
			"min":[
				0
			],
			"type":"SCALAR"
		},
		{
			"bufferView":51,
			"componentType":5126,
			"count":2,
			"type":"VEC3"
		},
		{
			"bufferView":52,
			"componentType":5126,
			"count":2,
			"type":"VEC3"
		},
		{
			"bufferView":53,
			"componentType":5126,
			"count":7,
			"type":"VEC4"
		},
		{
			"bufferView":54,
			"componentType":5126,
			"count":2,
			"type":"VEC3"
		},
		{
			"bufferView":55,
			"componentType":5126,
			"count":2,
			"max":[
				0.2916666666666667
			],
			"min":[
				0.041666666666666664
			],
			"type":"SCALAR"
		},
		{
			"bufferView":56,
			"componentType":5126,
			"count":2,
			"type":"VEC3"
		},
		{
			"bufferView":57,
			"componentType":5126,
			"count":2,
			"type":"VEC4"
		},
		{
			"bufferView":58,
			"componentType":5126,
			"count":2,
			"type":"VEC3"
		},
		{
			"bufferView":59,
			"componentType":5126,
			"count":2,
			"type":"VEC3"
		},
		{
			"bufferView":60,
			"componentType":5126,
			"count":2,
			"type":"VEC4"
		},
		{
			"bufferView":61,
			"componentType":5126,
			"count":2,
			"type":"VEC3"
		}
	],
	"bufferViews":[
		{
			"buffer":0,
			"byteLength":2256,
			"byteOffset":0,
			"target":34962
		},
		{
			"buffer":0,
			"byteLength":2256,
			"byteOffset":2256,
			"target":34962
		},
		{
			"buffer":0,
			"byteLength":1504,
			"byteOffset":4512,
			"target":34962
		},
		{
			"buffer":0,
			"byteLength":752,
			"byteOffset":6016,
			"target":34962
		},
		{
			"buffer":0,
			"byteLength":3008,
			"byteOffset":6768,
			"target":34962
		},
		{
			"buffer":0,
			"byteLength":1248,
			"byteOffset":9776,
			"target":34963
		},
		{
			"buffer":0,
			"byteLength":128,
			"byteOffset":11024
		},
		{
			"buffer":0,
			"byteLength":2256,
			"byteOffset":11152,
			"target":34962
		},
		{
			"buffer":0,
			"byteLength":2256,
			"byteOffset":13408,
			"target":34962
		},
		{
			"buffer":0,
			"byteLength":1504,
			"byteOffset":15664,
			"target":34962
		},
		{
			"buffer":0,
			"byteLength":752,
			"byteOffset":17168,
			"target":34962
		},
		{
			"buffer":0,
			"byteLength":3008,
			"byteOffset":17920,
			"target":34962
		},
		{
			"buffer":0,
			"byteLength":2040,
			"byteOffset":20928,
			"target":34962
		},
		{
			"buffer":0,
			"byteLength":2040,
			"byteOffset":22968,
			"target":34962
		},
		{
			"buffer":0,
			"byteLength":1360,
			"byteOffset":25008,
			"target":34962
		},
		{
			"buffer":0,
			"byteLength":680,
			"byteOffset":26368,
			"target":34962
		},
		{
			"buffer":0,
			"byteLength":2720,
			"byteOffset":27048,
			"target":34962
		},
		{
			"buffer":0,
			"byteLength":1248,
			"byteOffset":29768,
			"target":34963
		},
		{
			"buffer":0,
			"byteLength":2664,
			"byteOffset":31016,
			"target":34962
		},
		{
			"buffer":0,
			"byteLength":2664,
			"byteOffset":33680,
			"target":34962
		},
		{
			"buffer":0,
			"byteLength":1776,
			"byteOffset":36344,
			"target":34962
		},
		{
			"buffer":0,
			"byteLength":888,
			"byteOffset":38120,
			"target":34962
		},
		{
			"buffer":0,
			"byteLength":3552,
			"byteOffset":39008,
			"target":34962
		},
		{
			"buffer":0,
			"byteLength":1632,
			"byteOffset":42560,
			"target":34963
		},
		{
			"buffer":0,
			"byteLength":2664,
			"byteOffset":44192,
			"target":34962
		},
		{
			"buffer":0,
			"byteLength":2664,
			"byteOffset":46856,
			"target":34962
		},
		{
			"buffer":0,
			"byteLength":1776,
			"byteOffset":49520,
			"target":34962
		},
		{
			"buffer":0,
			"byteLength":888,
			"byteOffset":51296,
			"target":34962
		},
		{
			"buffer":0,
			"byteLength":3552,
			"byteOffset":52184,
			"target":34962
		},
		{
			"buffer":0,
			"byteLength":2664,
			"byteOffset":55736,
			"target":34962
		},
		{
			"buffer":0,
			"byteLength":2664,
			"byteOffset":58400,
			"target":34962
		},
		{
			"buffer":0,
			"byteLength":1776,
			"byteOffset":61064,
			"target":34962
		},
		{
			"buffer":0,
			"byteLength":888,
			"byteOffset":62840,
			"target":34962
		},
		{
			"buffer":0,
			"byteLength":3552,
			"byteOffset":63728,
			"target":34962
		},
		{
			"buffer":0,
			"byteLength":1632,
			"byteOffset":67280,
			"target":34963
		},
		{
			"buffer":0,
			"byteLength":4248,
			"byteOffset":68912,
			"target":34962
		},
		{
			"buffer":0,
			"byteLength":4248,
			"byteOffset":73160,
			"target":34962
		},
		{
			"buffer":0,
			"byteLength":2832,
			"byteOffset":77408,
			"target":34962
		},
		{
			"buffer":0,
			"byteLength":1416,
			"byteOffset":80240,
			"target":34962
		},
		{
			"buffer":0,
			"byteLength":5664,
			"byteOffset":81656,
			"target":34962
		},
		{
			"buffer":0,
			"byteLength":2112,
			"byteOffset":87320,
			"target":34963
		},
		{
			"buffer":0,
			"byteLength":3324,
			"byteOffset":89432,
			"target":34962
		},
		{
			"buffer":0,
			"byteLength":3324,
			"byteOffset":92756,
			"target":34962
		},
		{
			"buffer":0,
			"byteLength":2216,
			"byteOffset":96080,
			"target":34962
		},
		{
			"buffer":0,
			"byteLength":1108,
			"byteOffset":98296,
			"target":34962
		},
		{
			"buffer":0,
			"byteLength":4432,
			"byteOffset":99404,
			"target":34962
		},
		{
			"buffer":0,
			"byteLength":1860,
			"byteOffset":103836,
			"target":34963
		},
		{
			"buffer":0,
			"byteLength":28,
			"byteOffset":105696
		},
		{
			"buffer":0,
			"byteLength":84,
			"byteOffset":105724
		},
		{
			"buffer":0,
			"byteLength":112,
			"byteOffset":105808
		},
		{
			"buffer":0,
			"byteLength":8,
			"byteOffset":105920
		},
		{
			"buffer":0,
			"byteLength":24,
			"byteOffset":105928
		},
		{
			"buffer":0,
			"byteLength":24,
			"byteOffset":105952
		},
		{
			"buffer":0,
			"byteLength":112,
			"byteOffset":105976
		},
		{
			"buffer":0,
			"byteLength":24,
			"byteOffset":106088
		},
		{
			"buffer":0,
			"byteLength":8,
			"byteOffset":106112
		},
		{
			"buffer":0,
			"byteLength":24,
			"byteOffset":106120
		},
		{
			"buffer":0,
			"byteLength":32,
			"byteOffset":106144
		},
		{
			"buffer":0,
			"byteLength":24,
			"byteOffset":106176
		},
		{
			"buffer":0,
			"byteLength":24,
			"byteOffset":106200
		},
		{
			"buffer":0,
			"byteLength":32,
			"byteOffset":106224
		},
		{
			"buffer":0,
			"byteLength":24,
			"byteOffset":106256
		}
	],
	"samplers":[
		{
			"magFilter":9729,
			"minFilter":9987
		}
	],
	"buffers":[
		{
			"byteLength":106280,
			"uri":"panela-comida.bin"
		}
	]
}
