{
  "asset": {
    "version": "2.0",
    "generator": "THREE.GLTFExporter r175"
  },
  "scenes": [
    {
      "name": "Scene",
      "nodes": [
        3
      ]
    }
  ],
  "scene": 0,
  "nodes": [
    {
      "name": "pan_A",
      "extras": {
        "name": "pan_A"
      },
      "mesh": 0,
      "skin": 0
    },
    {
      "rotation": [
        -0.7319900393486023,
        8.121912031811007e-8,
        -8.726001965442265e-8,
        0.6813153624534607
      ],
      "translation": [
        0,
        0.1869044303894043,
        0.9048054814338684
      ],
      "scale": [
        1,
        1,
        0.9999999403953552
      ],
      "name": "Bone",
      "extras": {
        "name": "Bone"
      }
    },
    {
      "name": "Armature",
      "extras": {
        "name": "Armature"
      },
      "children": [
        0,
        1
      ]
    },
    {
      "name": "pan_A.glb",
      "children": [
        2
      ]
    }
  ],
  "bufferViews": [
    {
      "buffer": 0,
      "byteOffset": 0,
      "byteLength": 3468,
      "target": 34962,
      "byteStride": 12
    },
    {
      "buffer": 0,
      "byteOffset": 3468,
      "byteLength": 3468,
      "target": 34962,
      "byteStride": 12
    },
    {
      "buffer": 0,
      "byteOffset": 6936,
      "byteLength": 2312,
      "target": 34962,
      "byteStride": 8
    },
    {
      "buffer": 0,
      "byteOffset": 9248,
      "byteLength": 1156,
      "target": 34962,
      "byteStride": 4
    },
    {
      "buffer": 0,
      "byteOffset": 10404,
      "byteLength": 4624,
      "target": 34962,
      "byteStride": 16
    },
    {
      "buffer": 0,
      "byteOffset": 15028,
      "byteLength": 1860,
      "target": 34963
    },
    {
      "buffer": 0,
      "byteOffset": 16888,
      "byteLength": 64
    },
    {
      "buffer": 0,
      "byteOffset": 16952,
      "byteLength": 8
    },
    {
      "buffer": 0,
      "byteOffset": 16960,
      "byteLength": 24
    },
    {
      "buffer": 0,
      "byteOffset": 16984,
      "byteLength": 80
    },
    {
      "buffer": 0,
      "byteOffset": 17064,
      "byteLength": 320
    },
    {
      "buffer": 0,
      "byteOffset": 17384,
      "byteLength": 8
    },
    {
      "buffer": 0,
      "byteOffset": 17392,
      "byteLength": 24
    },
    {
      "buffer": 0,
      "byteOffset": 17416,
      "byteLength": 4
    },
    {
      "buffer": 0,
      "byteOffset": 17420,
      "byteLength": 12
    },
    {
      "buffer": 0,
      "byteOffset": 17432,
      "byteLength": 4
    },
    {
      "buffer": 0,
      "byteOffset": 17436,
      "byteLength": 16
    },
    {
      "buffer": 0,
      "byteOffset": 17452,
      "byteLength": 4
    },
    {
      "buffer": 0,
      "byteOffset": 17456,
      "byteLength": 12
    }
  ],
  "buffers": [
    {
      "byteLength": 17468,
      "uri": "data:application/octet-stream;base64,"
    }
  ],
  "accessors": [
    {
      "bufferView": 0,
      "componentType": 5126,
      "count": 289,
      "max": [
        0.5,
        0.25,
        1
      ],
      "min": [
        -0.5,
        0,
        -0.5
      ],
      "type": "VEC3"
    },
    {
      "bufferView": 1,
      "componentType": 5126,
      "count": 289,
      "max": [
        0.9926697015762329,
        1,
        0.980783998966217
      ],
      "min": [
        -0.9926697015762329,
        -1,
        -0.980783998966217
      ],
      "type": "VEC3"
    },
    {
      "bufferView": 2,
      "componentType": 5126,
      "count": 289,
      "max": [
        0.4835546910762787,
        0.17168164253234863
      ],
      "min": [
        0.40931427478790283,
        0.07419002056121826
      ],
      "type": "VEC2"
    },
    {
      "bufferView": 3,
      "componentType": 5121,
      "count": 289,
      "max": [
        0,
        0,
        0,
        0
      ],
      "min": [
        0,
        0,
        0,
        0
      ],
      "type": "VEC4"
    },
    {
      "bufferView": 4,
      "componentType": 5126,
      "count": 289,
      "max": [
        1,
        0,
        0,
        0
      ],
      "min": [
        1,
        0,
        0,
        0
      ],
      "type": "VEC4"
    },
    {
      "bufferView": 5,
      "componentType": 5123,
      "count": 930,
      "max": [
        288
      ],
      "min": [
        0
      ],
      "type": "SCALAR"
    },
    {
      "bufferView": 6,
      "componentType": 5126,
      "count": 1,
      "max": [
        1,
        0,
        2.3841860752327193e-7,
        0,
        -2.3780634705872217e-7,
        -0.07161875069141388,
        0.9974321126937866,
        0,
        1.7075240776875944e-8,
        -0.9974320530891418,
        -0.07161875069141388,
        0,
        2.8997288126220155e-8,
        0.915867805480957,
        -0.1216234415769577,
        1
      ],
      "min": [
        1,
        0,
        2.3841860752327193e-7,
        0,
        -2.3780634705872217e-7,
        -0.07161875069141388,
        0.9974321126937866,
        0,
        1.7075240776875944e-8,
        -0.9974320530891418,
        -0.07161875069141388,
        0,
        2.8997288126220155e-8,
        0.915867805480957,
        -0.1216234415769577,
        1
      ],
      "type": "MAT4"
    },
    {
      "bufferView": 7,
      "componentType": 5126,
      "count": 2,
      "max": [
        0.8333333134651184
      ],
      "min": [
        0.0416666679084301
      ],
      "type": "SCALAR"
    },
    {
      "bufferView": 8,
      "componentType": 5126,
      "count": 2,
      "max": [
        0,
        0.1869044303894043,
        0.9048054814338684
      ],
      "min": [
        0,
        0.1869044303894043,
        0.9048054814338684
      ],
      "type": "VEC3"
    },
    {
      "bufferView": 9,
      "componentType": 5126,
      "count": 20,
      "max": [
        0.8333333134651184
      ],
      "min": [
        0.0416666679084301
      ],
      "type": "SCALAR"
    },
    {
      "bufferView": 10,
      "componentType": 5126,
      "count": 20,
      "max": [
        -0.5882849097251892,
        1.1412159750534556e-7,
        -5.663299873504002e-8,
        0.8086537718772888
      ],
      "min": [
        -0.7319900393486023,
        6.370711957970343e-8,
        -1.0075840606305064e-7,
        0.6813153624534607
      ],
      "type": "VEC4"
    },
    {
      "bufferView": 11,
      "componentType": 5126,
      "count": 2,
      "max": [
        0.8333333134651184
      ],
      "min": [
        0.0416666679084301
      ],
      "type": "SCALAR"
    },
    {
      "bufferView": 12,
      "componentType": 5126,
      "count": 2,
      "max": [
        1,
        1,
        0.9999999403953552
      ],
      "min": [
        1,
        1,
        0.9999999403953552
      ],
      "type": "VEC3"
    },
    {
      "bufferView": 13,
      "componentType": 5126,
      "count": 1,
      "max": [
        0
      ],
      "min": [
        0
      ],
      "type": "SCALAR"
    },
    {
      "bufferView": 14,
      "componentType": 5126,
      "count": 1,
      "max": [
        0,
        0.1869044303894043,
        0.9048054814338684
      ],
      "min": [
        0,
        0.1869044303894043,
        0.9048054814338684
      ],
      "type": "VEC3"
    },
    {
      "bufferView": 15,
      "componentType": 5126,
      "count": 1,
      "max": [
        0
      ],
      "min": [
        0
      ],
      "type": "SCALAR"
    },
    {
      "bufferView": 16,
      "componentType": 5126,
      "count": 1,
      "max": [
        -0.7319900393486023,
        8.121912031811007e-8,
        -8.726001965442265e-8,
        0.6813153624534607
      ],
      "min": [
        -0.7319900393486023,
        8.121912031811007e-8,
        -8.726001965442265e-8,
        0.6813153624534607
      ],
      "type": "VEC4"
    },
    {
      "bufferView": 17,
      "componentType": 5126,
      "count": 1,
      "max": [
        0
      ],
      "min": [
        0
      ],
      "type": "SCALAR"
    },
    {
      "bufferView": 18,
      "componentType": 5126,
      "count": 1,
      "max": [
        1,
        1,
        0.9999999403953552
      ],
      "min": [
        1,
        1,
        0.9999999403953552
      ],
      "type": "VEC3"
    }
  ],
  "materials": [
    {
      "pbrMetallicRoughness": {
        "metallicFactor": 0,
        "roughnessFactor": 0.5,
        "baseColorTexture": {
          "index": 0,
          "texCoord": 0
        }
      },
      "name": "restaurant"
    }
  ],
  "textures": [
    {
      "sampler": 0,
      "source": 0,
      "name": "restaurantbits_texture"
    }
  ],
  "samplers": [
    {
      "magFilter": 9729,
      "minFilter": 9987,
      "wrapS": 10497,
      "wrapT": 10497
    }
  ],
  "images": [
    {
      "mimeType": "image/png",
      "uri": "data:image/png;base64,"
    }
  ],
  "meshes": [
    {
      "primitives": [
        {
          "mode": 4,
          "attributes": {
            "POSITION": 0,
            "NORMAL": 1,
            "TEXCOORD_0": 2,
            "JOINTS_0": 3,
            "WEIGHTS_0": 4
          },
          "indices": 5,
          "material": 0
        }
      ]
    }
  ],
  "skins": [
    {
      "inverseBindMatrices": 6,
      "joints": [
        1
      ],
      "skeleton": 1
    }
  ],
  "animations": [
    {
      "name": "flip",
      "samplers": [
        {
          "input": 7,
          "output": 8,
          "interpolation": "STEP"
        },
        {
          "input": 9,
          "output": 10,
          "interpolation": "LINEAR"
        },
        {
          "input": 11,
          "output": 12,
          "interpolation": "STEP"
        }
      ],
      "channels": [
        {
          "sampler": 0,
          "target": {
            "node": 1,
            "path": "translation"
          }
        },
        {
          "sampler": 1,
          "target": {
            "node": 1,
            "path": "rotation"
          }
        },
        {
          "sampler": 2,
          "target": {
            "node": 1,
            "path": "scale"
          }
        }
      ]
    },
    {
      "name": "idle",
      "samplers": [
        {
          "input": 13,
          "output": 14,
          "interpolation": "STEP"
        },
        {
          "input": 15,
          "output": 16,
          "interpolation": "STEP"
        },
        {
          "input": 17,
          "output": 18,
          "interpolation": "STEP"
        }
      ],
      "channels": [
        {
          "sampler": 0,
          "target": {
            "node": 1,
            "path": "translation"
          }
        },
        {
          "sampler": 1,
          "target": {
            "node": 1,
            "path": "rotation"
          }
        },
        {
          "sampler": 2,
          "target": {
            "node": 1,
            "path": "scale"
          }
        }
      ]
    }
  ]
}